<?xml version="1.0" standalone="no"?>
<!DOCTYPE svg PUBLIC "-//W3C//DTD SVG 20010904//EN"
 "http://www.w3.org/TR/2001/REC-SVG-20010904/DTD/svg10.dtd">
<svg version="1.0" xmlns="http://www.w3.org/2000/svg"
 width="360.000000pt" height="360.000000pt" viewBox="0 0 360.000000 360.000000"
 preserveAspectRatio="xMidYMid meet">
<metadata>
Created by potrace 1.11, written by Peter Selinger 2001-2013
</metadata>
<g transform="translate(0.000000,360.000000) scale(0.100000,-0.100000)"
fill="#000000" stroke="none">
<path d="M0 1800 l0 -1800 1800 0 1800 0 0 1800 0 1800 -1800 0 -1800 0 0
-1800z m2415 1538 c16 -7 25 -19 25 -35 0 -26 -7 -28 -44 -13 -19 7 -26 17
-26 35 0 28 8 30 45 13z m-1452 -280 c7 -171 17 -254 68 -558 17 -102 32 -191
33 -198 0 -7 -57 -37 -134 -71 -202 -87 -230 -100 -230 -103 0 -2 18 -2 40 0
22 2 40 8 40 13 0 5 13 9 29 9 16 0 34 7 41 15 7 8 27 15 45 15 18 0 38 7 45
15 7 8 24 15 39 14 14 -1 58 4 96 10 100 15 130 15 116 -3 -6 -7 -31 -14 -56
-14 -46 -1 -91 -22 -77 -37 4 -4 -2 -5 -14 -1 -14 4 -36 -2 -64 -18 l-43 -24
38 -35 c21 -19 44 -33 52 -30 7 3 15 -2 19 -10 3 -9 13 -13 25 -10 13 4 19 0
19 -11 0 -10 4 -15 9 -12 5 4 12 0 14 -6 3 -8 6 -6 6 5 1 10 6 15 12 12 5 -4
9 -17 8 -28 -3 -43 1 -57 17 -57 9 0 14 -7 12 -18 -1 -10 7 -29 20 -42 12 -13
22 -32 22 -41 0 -29 21 -68 47 -84 13 -9 21 -21 17 -27 -4 -7 -3 -8 4 -4 19
11 53 16 47 6 -3 -4 1 -11 7 -14 7 -3 2 -3 -12 0 l-25 6 25 -19 c14 -11 37
-23 51 -26 15 -4 29 -15 33 -24 25 -74 33 -103 29 -107 -3 -3 -1 -18 5 -33 7
-21 6 -31 -4 -41 -11 -10 -14 -10 -14 1 0 19 -37 28 -50 13 -5 -7 -7 -16 -3
-19 3 -4 1 -7 -6 -7 -8 0 -11 -6 -7 -16 4 -10 -1 -26 -11 -37 -10 -11 -12 -17
-5 -13 6 4 12 2 12 -3 0 -6 -9 -11 -21 -11 -18 0 -19 -2 -5 -15 8 -8 18 -15
23 -15 4 0 14 -9 20 -20 14 -22 84 -44 112 -35 10 3 24 -1 31 -10 7 -8 27 -15
45 -15 18 0 53 -9 79 -21 26 -11 55 -18 65 -14 10 3 24 -1 31 -10 7 -8 32 -20
56 -26 24 -6 44 -15 44 -20 0 -5 6 -6 14 -3 8 3 17 1 21 -5 3 -6 15 -11 26
-11 11 0 22 -7 26 -16 3 -8 11 -13 18 -10 7 2 17 -6 24 -20 6 -13 16 -24 22
-24 6 0 9 -7 5 -15 -3 -8 -1 -15 4 -15 4 0 11 -14 15 -30 4 -17 12 -30 18 -29
28 4 99 -15 104 -28 4 -9 14 -12 29 -9 31 8 54 -3 54 -25 0 -17 3 -18 21 -9
17 10 21 8 26 -9 3 -11 11 -22 19 -25 7 -3 11 -12 8 -21 -5 -11 -21 -15 -63
-15 -52 0 -59 -3 -72 -26 -16 -30 -139 -146 -172 -162 -88 -43 -118 -52 -138
-41 -13 6 -36 8 -58 4 -75 -14 -106 -10 -142 18 -20 15 -48 27 -62 27 -14 0
-28 4 -32 10 -3 5 -30 9 -59 9 -60 -1 -127 28 -150 64 -8 12 -19 55 -26 95
-11 69 -13 72 -39 72 -36 0 -61 43 -64 112 -1 39 -6 53 -17 53 -8 0 -15 7 -15
16 0 9 -20 36 -43 60 -23 24 -54 65 -69 92 -14 26 -28 45 -30 43 -9 -9 62
-173 83 -195 28 -28 29 -31 10 -57 -13 -16 -18 -17 -36 -6 -19 12 -20 11 -11
-5 7 -15 4 -21 -15 -30 -14 -6 -26 -7 -30 -2 -10 16 -24 9 -24 -11 0 -17 -3
-19 -19 -10 -30 15 -33 12 -15 -15 15 -23 15 -26 -6 -54 l-21 -30 25 -7 c28
-7 26 -24 -3 -24 -16 0 -35 30 -32 51 0 4 -10 10 -22 13 -12 3 -30 17 -40 31
-20 27 -22 23 47 96 21 23 25 34 17 42 -8 8 -11 8 -11 -1 0 -7 -8 -12 -17 -12
-19 0 -53 28 -53 45 0 6 -10 20 -22 32 -13 11 -40 39 -60 62 -30 33 -34 42
-18 39 10 -2 20 2 22 7 2 6 -12 11 -29 13 -21 2 -33 -1 -33 -9 0 -8 -6 -6 -18
4 -10 10 -23 17 -29 17 -5 0 -18 9 -28 20 -10 11 -22 20 -27 20 -12 0 -10 -27
4 -50 20 -31 3 -34 -45 -6 -26 16 -51 24 -61 20 -11 -4 -22 1 -32 15 -14 20
-44 29 -44 14 0 -5 14 -28 30 -52 17 -24 30 -50 30 -56 0 -19 27 -38 35 -25
12 20 22 10 31 -33 7 -32 14 -43 31 -45 23 -3 32 -28 38 -101 2 -20 7 -51 10
-68 9 -40 -2 -106 -16 -98 -5 4 -9 16 -9 29 0 12 -7 31 -15 42 -8 10 -15 26
-15 35 0 8 -11 26 -25 39 l-25 24 -42 -40 c-24 -21 -44 -42 -46 -46 -6 -13
-56 -8 -75 7 -29 21 -58 83 -64 136 -5 41 -3 49 10 49 14 0 37 28 37 44 0 3
-13 6 -29 6 -39 0 -62 30 -101 133 -20 53 -29 92 -26 110 4 22 2 27 -14 27
-28 0 -38 27 -56 142 -29 190 -9 452 47 605 11 32 24 81 29 108 20 121 123
339 212 447 21 26 38 51 38 57 0 6 29 34 65 62 66 52 81 68 44 49 -42 -23 -29
0 43 76 77 82 183 174 199 174 5 0 9 -10 9 -22 0 -20 1 -21 20 -3 20 18 20 17
21 -66 2 -137 16 -160 18 -28 1 84 5 120 14 128 19 15 27 4 28 -43 2 -41 4
-34 15 52 11 84 21 39 27 -120z m660 -248 c6 -22 -5 -119 -23 -198 -9 -41 -9
-56 0 -68 10 -11 10 -18 -4 -32 -9 -10 -13 -22 -10 -25 4 -4 -4 -11 -18 -16
-13 -5 -30 -16 -37 -24 -7 -9 -19 -13 -27 -10 -19 7 -19 -66 1 -93 16 -21 19
-55 6 -70 -15 -16 -22 -74 -8 -75 8 0 9 -2 1 -5 -15 -6 -5 -45 15 -61 14 -11
14 -12 -1 -13 -10 0 -18 -10 -21 -27 -3 -20 -5 -16 -7 17 -2 25 -3 51 -3 58 1
24 -36 -18 -40 -47 -2 -15 -5 -5 -6 24 -2 28 -5 45 -7 38 -3 -7 -12 -9 -20 -6
-9 3 -14 -1 -14 -13 0 -14 -8 -20 -30 -21 -17 -1 -30 2 -30 8 0 6 -4 8 -9 5
-5 -3 -15 2 -22 12 -13 15 -12 16 4 3 9 -7 17 -9 17 -4 0 6 22 13 48 17 80 10
90 29 90 166 0 63 5 140 11 170 6 30 16 89 21 130 7 46 20 90 35 117 36 61 78
82 88 43z m1538 -72 c19 -24 39 -52 46 -63 29 -49 53 -100 53 -112 0 -7 15
-33 33 -59 l32 -46 -24 -19 c-13 -11 -21 -23 -17 -26 4 -4 11 -1 16 6 5 9 14
11 26 6 17 -7 17 -9 2 -12 -9 -2 -20 -16 -24 -31 -5 -20 -8 -23 -11 -9 -3 9
-11 17 -19 17 -18 0 -17 -10 1 -34 8 -11 15 -27 15 -35 -1 -13 -2 -13 -11 2
-11 18 -39 24 -39 7 0 -6 5 -19 12 -30 16 -25 3 -38 -22 -22 -26 16 -26 1 0
-21 12 -10 20 -29 20 -48 0 -25 -3 -29 -19 -24 -28 8 -34 -10 -16 -44 8 -17
15 -32 15 -35 0 -9 -45 7 -63 22 -13 12 -11 2 10 -38 15 -30 31 -57 34 -60 12
-10 18 -56 9 -70 -7 -12 -12 -12 -37 0 -15 8 -32 16 -36 18 -5 2 -1 -10 7 -27
9 -17 14 -31 11 -31 -3 0 0 -10 7 -22 7 -13 13 -26 14 -30 1 -5 3 -11 4 -15 1
-5 1 -18 0 -31 -1 -13 3 -29 10 -36 6 -8 10 -18 8 -22 -6 -25 16 -103 37 -129
24 -28 25 -29 25 -7 0 13 6 22 15 22 8 0 15 -7 15 -15 0 -9 9 -15 25 -15 14 0
25 -6 25 -12 0 -9 3 -8 10 2 5 8 12 11 16 7 12 -12 10 -69 -3 -74 -19 -7 -16
-27 7 -48 23 -21 27 -55 5 -55 -8 0 -15 -7 -15 -15 0 -8 -4 -14 -9 -12 -13 3
-54 -47 -41 -51 19 -7 -42 -45 -71 -45 -16 0 -38 8 -49 18 -11 10 -20 15 -20
11 0 -4 -5 -4 -11 0 -8 5 -6 10 5 16 18 10 22 48 6 48 -6 0 -13 -8 -17 -17 -9
-26 -72 -85 -83 -78 -11 7 -32 -29 -22 -40 4 -4 0 -6 -8 -3 -23 8 -96 -47
-132 -100 -17 -26 -35 -49 -38 -52 -11 -8 -31 -50 -25 -50 3 0 17 7 31 17 14
9 89 44 167 78 148 64 303 166 293 192 -6 16 10 17 19 2 4 -6 13 -8 19 -6 7 3
18 2 24 -2 14 -9 -61 -234 -93 -276 -12 -16 -30 -48 -39 -70 -55 -124 -122
-224 -219 -323 -20 -21 -27 -22 -95 -16 -50 4 -77 3 -86 -6 -23 -18 -8 -39 25
-35 21 3 29 0 29 -12 0 -9 6 -13 15 -9 8 3 15 1 15 -3 0 -5 -13 -14 -29 -19
-19 -7 -29 -17 -28 -29 1 -10 -4 -17 -10 -15 -7 1 -13 -4 -13 -10 0 -23 -104
-108 -133 -108 -7 0 -23 -11 -35 -25 -12 -14 -28 -25 -34 -26 -37 -3 -128 -4
-128 -1 0 1 26 35 59 75 69 85 136 149 181 172 17 9 29 19 27 22 -3 3 -1 17 5
32 22 54 29 109 28 206 -2 92 -7 140 -31 255 -5 25 -16 88 -24 140 -14 90 -20
125 -31 178 -4 21 -34 32 -34 12 0 -5 -8 -6 -17 -3 -11 4 -12 8 -5 11 14 4 16
32 2 32 -5 0 -14 -8 -19 -17 -10 -17 -10 -17 -11 -1 0 9 -5 20 -11 23 -7 5
-10 -24 -9 -92 2 -104 -8 -150 -34 -150 -8 0 -13 4 -10 8 2 4 0 10 -5 13 -28
18 -17 166 19 241 11 22 26 60 35 85 9 24 38 87 66 138 42 78 51 105 54 153 2
33 8 66 15 74 7 8 10 26 6 40 -7 26 -26 35 -26 11 0 -8 -9 -24 -20 -37 -21
-27 -26 -19 -9 13 10 19 6 27 -38 67 -53 50 -89 98 -80 108 7 6 93 -46 147
-89 35 -28 57 -37 45 -18 -3 6 -38 35 -76 66 l-70 56 23 20 c21 18 22 20 5 32
-9 7 -17 16 -17 20 0 9 27 8 33 -1 2 -5 2 -3 1 4 -2 7 20 21 49 31 105 39 197
40 197 1 0 -22 13 -25 29 -5 8 9 10 31 5 63 -6 49 17 230 36 275 5 13 12 37
15 53 7 27 8 28 15 10 8 -18 9 -17 9 6 1 15 8 32 17 39 13 11 16 10 21 -8 3
-12 9 -19 14 -16 5 3 2 18 -6 35 -22 42 -4 36 36 -13z m-861 -304 c0 -8 -4
-12 -10 -9 -5 3 -10 13 -10 21 0 8 5 12 10 9 6 -3 10 -13 10 -21z m498 -44
c17 -11 32 -24 32 -30 0 -6 11 -8 28 -4 50 12 10 -13 -64 -39 l-71 -25 -16 35
c-33 73 17 108 91 63z m539 -32 c-3 -8 -6 -5 -6 6 -1 11 2 17 5 13 3 -3 4 -12
1 -19z m-667 -3 c7 -9 8 -15 2 -15 -5 0 -12 7 -16 15 -3 8 -4 15 -2 15 2 0 9
-7 16 -15z m-395 -60 c-3 -25 -9 -47 -14 -49 -12 -8 -34 11 -27 23 4 6 12 8
18 5 7 -4 8 -2 4 5 -4 6 -2 28 5 49 15 45 23 26 14 -33z m423 4 c-3 -8 -7 -3
-11 10 -4 17 -3 21 5 13 5 -5 8 -16 6 -23z m-408 -89 c-35 -31 -50 -37 -50
-20 0 18 40 50 62 50 20 0 18 -3 -12 -30z m-1010 -26 c0 -2 -11 -4 -25 -4 -14
0 -25 4 -25 9 0 4 11 6 25 3 14 -2 25 -6 25 -8z m510 -3 c0 -11 -5 -23 -11
-26 -6 -4 -8 -13 -5 -21 3 -8 1 -14 -4 -14 -12 0 -12 7 -4 49 7 34 24 42 24
12z m1675 -532 c4 -12 2 -26 -4 -32 -14 -14 -19 -8 -25 26 -6 33 19 38 29 6z
m-17 -96 c-2 -17 -9 -28 -18 -28 -9 0 -16 11 -18 28 -3 22 1 27 18 27 17 0 21
-5 18 -27z m-31 -165 c-3 -8 -6 -5 -6 6 -1 11 2 17 5 13 3 -3 4 -12 1 -19z
m-2797 -208 c0 -5 -5 -10 -11 -10 -5 0 -7 5 -4 10 3 6 8 10 11 10 2 0 4 -4 4
-10z m163 -6 c9 -10 -4 -34 -19 -34 -16 0 -16 2 -8 24 6 17 16 20 27 10z m33
-51 c8 -31 -5 -57 -32 -61 -16 -3 -16 -1 4 13 24 18 29 44 10 63 -9 9 -9 12 0
12 6 0 15 -12 18 -27z m-96 -8 c0 -8 0 -18 1 -22 0 -4 -4 -9 -10 -11 -6 -2
-11 8 -11 22 0 14 5 26 10 26 6 0 10 -7 10 -15z m142 -87 c-6 -6 -14 -9 -17
-6 -3 3 -3 13 1 22 5 12 10 14 17 7 8 -8 8 -14 -1 -23z m308 -8 c-33 -26 -49
-26 -19 0 13 10 29 19 34 19 6 1 -1 -8 -15 -19z m-337 -87 c-3 -7 -10 -13 -17
-13 -6 0 -20 -14 -30 -31 -12 -20 -22 -27 -28 -21 -7 7 -7 16 0 28 7 12 6 23
-1 35 -8 13 -8 25 1 44 l12 26 34 -27 c19 -15 32 -33 29 -41z m375 -40 c6 -13
12 -25 12 -28 0 -4 -6 -3 -12 2 -7 4 -29 8 -48 8 -31 0 -35 3 -38 29 -2 15 0
26 5 23 5 -3 15 2 23 13 13 18 14 18 29 -3 9 -12 22 -32 29 -44z m-148 16 c0
-14 -53 -20 -64 -8 -8 9 -8 10 0 6 6 -4 19 2 29 13 14 16 20 17 27 8 4 -7 8
-16 8 -19z m-220 -13 c0 -3 -4 -8 -10 -11 -5 -3 -10 -1 -10 4 0 6 5 11 10 11
6 0 10 -2 10 -4z m231 -65 c12 -16 29 -32 38 -35 9 -4 27 -13 41 -21 l24 -14
-24 -9 c-14 -5 -31 -7 -38 -5 -7 3 -19 0 -27 -7 -12 -10 -15 -10 -15 3 0 9
-10 17 -22 19 -20 3 -23 9 -23 51 -1 55 14 61 46 18z m171 -93 c3 -42 4 -43
38 -43 29 0 36 -4 38 -24 3 -18 0 -22 -11 -18 -8 3 -33 11 -56 18 -39 12 -41
14 -41 54 0 23 3 45 7 48 15 15 22 5 25 -35z m-152 -48 c0 -5 -5 -10 -11 -10
-5 0 -7 5 -4 10 3 6 8 10 11 10 2 0 4 -4 4 -10z m-27 -106 c-3 -8 -8 -12 -11
-10 -3 3 -11 1 -19 -5 -18 -16 -16 -3 4 20 18 22 35 19 26 -5z m186 -71 c-1
-34 -2 -35 -9 -13 -11 36 -11 50 0 50 6 0 10 -17 9 -37z m-227 -5 c-7 -7 -12
-8 -12 -2 0 14 12 26 19 19 2 -3 -1 -11 -7 -17z m31 -108 c-7 -8 -22 24 -16
34 4 5 10 1 13 -10 4 -10 6 -21 3 -24z m64 -6 c-3 -3 -12 -4 -19 -1 -8 3 -5 6
6 6 11 1 17 -2 13 -5z m158 -2 c-9 -9 -100 -20 -115 -13 -9 3 1 8 25 11 53 7
96 8 90 2z m1094 -116 c-8 -8 -79 -35 -79 -30 0 6 60 33 74 34 5 0 7 -2 5 -4z
m-143 -71 c-11 -8 -26 -15 -34 -15 -7 0 -11 -4 -8 -9 5 -8 -45 -23 -52 -16 -5
5 90 54 103 54 6 0 1 -6 -9 -14z"/>
<path d="M931 2964 c0 -11 3 -14 6 -6 3 7 2 16 -1 19 -3 4 -6 -2 -5 -13z"/>
<path d="M920 2540 c0 -5 5 -10 10 -10 6 0 10 5 10 10 0 6 -4 10 -10 10 -5 0
-10 -4 -10 -10z"/>
<path d="M943 2482 c-6 -4 -15 -19 -18 -35 -4 -15 -11 -24 -16 -21 -5 3 -9 -2
-9 -10 0 -9 -8 -16 -19 -16 -11 0 -22 -3 -24 -7 -8 -14 5 -73 14 -67 5 3 9 -9
9 -25 0 -26 4 -31 25 -31 13 0 36 5 50 12 22 10 26 17 21 40 -3 17 -1 28 5 28
8 0 7 5 -1 15 -7 9 -14 36 -14 60 -1 25 -5 45 -9 45 -5 0 -5 5 -2 10 7 12 4
12 -12 2z"/>
<path d="M1008 2387 c-4 -19 -1 -27 8 -27 15 0 16 6 5 35 -7 17 -8 17 -13 -8z"/>
<path d="M817 2363 c-4 -3 -7 -11 -7 -17 0 -6 5 -5 12 2 6 6 9 14 7 17 -3 3
-9 2 -12 -2z"/>
<path d="M626 2218 c-11 -10 -28 -18 -38 -18 -19 0 -36 -26 -24 -37 7 -7 85
17 92 28 2 4 1 16 -3 27 -8 18 -9 18 -27 0z"/>
<path d="M950 1526 c0 -3 14 -43 31 -90 31 -87 46 -111 36 -56 -4 17 -3 30 1
31 20 2 44 8 48 12 11 11 -40 77 -70 91 -35 17 -46 19 -46 12z"/>
<path d="M537 1480 c24 -37 43 -51 43 -32 -1 8 -57 72 -64 72 -3 0 7 -18 21
-40z"/>
<path d="M598 1386 c-20 -15 -23 -26 -8 -26 5 0 14 9 20 20 12 23 11 24 -12 6z"/>
<path d="M835 1391 c-3 -6 -24 -11 -45 -11 -25 0 -38 -4 -36 -12 3 -19 76 -88
92 -88 17 0 19 -46 2 -56 -7 -5 -5 -11 7 -21 21 -14 65 -18 65 -5 0 28 -24
122 -31 122 -5 0 -9 -4 -9 -10 0 -18 -17 -10 -34 15 -13 20 -14 30 -5 46 11
21 6 39 -6 20z"/>
<path d="M480 1330 c0 -5 5 -10 11 -10 5 0 7 5 4 10 -3 6 -8 10 -11 10 -2 0
-4 -4 -4 -10z"/>
<path d="M936 1251 c-7 -11 20 -59 43 -77 12 -9 12 -16 -3 -44 -19 -38 -12
-55 11 -25 15 20 15 20 9 -2 -8 -25 10 -41 27 -24 8 8 8 11 0 11 -6 0 -13 20
-15 44 -9 74 -54 147 -72 117z"/>
<path d="M1037 1068 c-22 -16 -25 -23 -15 -29 20 -13 28 -11 28 9 0 10 5 23
12 30 18 18 6 14 -25 -10z"/>
<path d="M392 1046 c-10 -38 7 -46 43 -22 34 22 31 43 -5 48 -27 4 -31 1 -38
-26z"/>
<path d="M1456 2184 c-6 -15 -4 -15 11 -3 10 7 20 15 22 16 2 2 -3 3 -11 3 -9
0 -19 -7 -22 -16z"/>
<path d="M2730 2229 c0 -8 7 -23 15 -33 15 -19 15 -19 15 1 0 11 -7 26 -15 33
-12 10 -15 10 -15 -1z"/>
<path d="M2913 2176 c4 -9 -3 -16 -15 -20 -18 -4 -19 -7 -8 -21 13 -15 15 -14
32 7 22 29 23 48 2 48 -10 0 -14 -6 -11 -14z"/>
<path d="M2857 2134 c-8 -9 11 -44 23 -44 6 0 10 6 10 14 0 16 -24 38 -33 30z"/>
<path d="M2850 2064 c0 -8 5 -12 10 -9 6 3 10 10 10 16 0 5 -4 9 -10 9 -5 0
-10 -7 -10 -16z"/>
<path d="M3077 2030 c3 -11 7 -20 9 -20 2 0 4 9 4 20 0 11 -4 20 -9 20 -5 0
-7 -9 -4 -20z"/>
<path d="M3010 1851 c0 -6 -10 -11 -23 -11 -24 0 -52 -34 -41 -51 3 -6 -2 -26
-12 -45 -13 -25 -23 -32 -36 -28 -13 4 -18 0 -18 -15 0 -12 5 -21 12 -21 6 0
4 -7 -5 -18 -23 -25 -21 -32 8 -32 14 0 25 -4 25 -10 0 -5 -9 -10 -20 -10 -11
0 -20 -7 -20 -15 0 -18 16 -20 23 -2 3 6 6 2 6 -11 1 -31 -16 -62 -34 -62 -8
0 -14 -5 -12 -12 1 -7 -4 -12 -10 -13 -13 0 -14 -5 -5 -38 3 -12 11 -17 23
-14 22 6 23 3 8 -26 -18 -38 70 65 101 118 16 28 47 69 70 93 31 33 40 49 39
75 -1 23 -3 26 -6 10 -6 -30 -13 -28 -43 7 -13 17 -33 30 -45 31 -11 0 -14 3
-7 6 6 2 12 13 12 23 0 21 23 43 34 32 5 -4 6 4 4 17 -3 24 -28 43 -28 22z
m-56 -169 c-6 -4 -14 -16 -18 -26 -5 -14 -10 -16 -18 -8 -16 16 -2 42 24 42
13 0 18 -4 12 -8z"/>
<path d="M3090 1811 c0 -5 5 -13 10 -16 6 -3 10 -2 10 4 0 5 -4 13 -10 16 -5
3 -10 2 -10 -4z"/>
<path d="M3110 1766 c0 -9 11 -39 25 -66 14 -27 25 -57 25 -65 0 -9 5 -13 10
-10 20 12 9 56 -25 106 -19 28 -35 44 -35 35z"/>
<path d="M3085 1461 c-17 -11 -29 -25 -27 -34 1 -9 -4 -31 -13 -49 l-16 -33
21 25 c11 14 28 36 38 50 9 14 22 29 29 33 14 9 18 27 6 26 -5 0 -21 -8 -38
-18z"/>
<path d="M2987 1393 c-4 -3 -7 -13 -7 -22 1 -13 3 -13 11 2 11 19 8 33 -4 20z"/>
<path d="M2953 1313 c-4 -10 -17 -31 -30 -46 -27 -33 -31 -56 -7 -36 16 13 64
84 64 94 0 13 -21 3 -27 -12z"/>
<path d="M3084 1059 c-16 -17 -16 -22 -4 -29 18 -11 28 -11 55 0 11 5 14 9 8
9 -7 1 -13 10 -13 21 0 26 -22 26 -46 -1z"/>
<path d="M3207 1024 c-27 -7 -54 -17 -60 -22 -7 -5 -24 -12 -40 -16 -15 -3
-42 -15 -60 -26 -42 -26 -12 -27 45 -1 24 11 74 30 112 44 77 27 78 40 3 21z"/>
</g>
</svg>
